<svg xmlns="http://www.w3.org/2000/svg" version="1.1" xmlns:xlink="http://www.w3.org/1999/xlink" viewBox="0 0 1422 800" style="overflow: hidden; display: block;" width="1422" height="800"><defs></defs><g id="two-0" transform="matrix(1 0 0 1 0 0)" opacity="1"></g><path d="M 91.93614391347505 225.10378491767437 Q 91.93614391347505 225.10378491767437 101.50457277929605 220.5948624993007 111.07300164511706 216.085940080927 113.73041496432438 216.1368990978949 116.3878282835317 216.18785811486285 120.83960899342816 216.30354888859569 125.2913897033246 216.41923966232852 131.1203579488702 215.9079146824173 136.94932619441582 215.3965897025061 140.5992056949974 215.5763790756975 144.249085195579 215.75616844888887 147.04423223216315 215.9337701141137 149.8393792687473 216.11137177933858 152.61561419563418 216.27413131747704 155.39184912252102 216.43689085561553 157.70674266022795 216.07830065227995 160.02163619793487 215.71971044894434 163.2847544644918 215.80245360734267 166.54787273104878 215.88519676574097 168.7854406743392 216.00491246149102 171.02300861762964 216.1246281572411 174.35688594160314 216.22932759584302 177.69076326557666 216.33402703444492 180.47384155375178 216.43870740335757 183.2569198419269 216.54338777227025 185.67605596445406 216.12161888094312 188.09519208698123 215.69984998961598 191.25269833981665 215.74579878084356 194.41020459265206 215.79174757207113 197.1954652990205 215.87227697688687 199.98072600538893 215.9528063817026 203.0436295909663 215.48261441359347 206.10653317654365 215.01242244548433 209.17054332735952 215.05390851602522 212.2345534781754 215.09539458656607 215.31874225736325 214.61220902784686 218.4029310365511 214.12902346912767 222.00468638993618 214.14827216989715 225.60644174332123 214.1675208706666 229.50222668668596 214.18597514073468 233.39801163005066 214.20442941080276 237.08673978860486 213.68134773053703 240.77546794715903 213.1582660502713 244.33525855913945 213.1769852622499 247.89504917111987 213.19570447422848 251.79292595570143 213.20757277264164 255.69080274028303 213.2194410710548 260.1416573700688 213.19801877351088 264.5925119998546 213.17659647596696 268.29158239629385 212.6489460599566 271.99065279273316 212.12129564394624 276.09757663417105 212.11356032290047 280.20450047560894 212.10582500185473 284.65924632108306 212.08417922865596 289.1139921665571 212.06253345545716 293.01918387352964 212.0748053798889 296.9243755805021 212.08707730432062 300.82489780432195 212.09848619008756 304.72542002814185 212.1098950758545 308.62591767535025 212.1202880355799 312.52641532255865 212.13068099530534 315.87441354670045 212.16381029604366 319.2224117708423 212.196939596782 323.1182129640605 212.20372068112638 327.0140141572787 212.21050176547078 330.9144565466447 212.2164525291174 334.8148989360107 212.222403292764 337.6104277344673 212.26732240070055 340.4059565329239 212.31224150863713 344.2970466069344 212.3142416961911 348.18813668094487 212.31624188374505 352.64620275644336 212.2857069314049 357.1042688319418 212.25517197906473 360.16004199820054 212.87503642638166 363.21581516445923 213.4949008736986 366.8528263681627 213.47546011989678 370.4898375718662 213.45601936609495 373.53221494787556 214.072074256291 376.57459232388493 214.68812914648706 380.76792040051237 214.6332484095102 384.9612484771398 214.57836767253337 389.0549392909023 215.14193484011756 393.14863010466485 215.70550200770174 397.051239598901 216.26103201436666 400.9538490931372 216.81656202103156 404.32933816609847 217.4009953227898 407.70482723905974 217.98542862454804 411.57075814349554 218.53452534995148 415.43668904793134 219.08362207535495 418.29716018429315 219.69020732648443 421.1576313206549 220.2967925776139 426.05209045374494 220.75759869464582 430.946549586835 221.21840481167774 433.86143919698236 221.8339596714455 436.7763288071298 222.44951453121328 440.2715097641345 223.61745199691558 443.7666907211392 224.78538946261784 448.12900961650246 225.82883921957023 452.49132851186573 226.87228897652264 455.2198532203274 227.45888258537025 457.94837792878906 228.04547619421783 460.7264836084895 228.63898108239505 463.50458928819 229.2324859705723 465.7935388486692 229.84759335017742 468.08248840914837 230.4627007297825 470.53472837066454 231.6953947963676 472.98696833218065 232.92808886295268 475.4802579776398 233.42086191026178 477.9735476230989 233.91363495757088 480.47176650430725 235.1490503671341 482.9699853855156 236.3844657766973 484.9683021357461 236.89733681191092 486.96661888597663 237.41020784712455 489.4040993997927 238.627884271525 491.8415799136087 239.84556069592546 492.95380597987474 240.43713710913175 494.0660320461408 241.02871352233805 495.82885742117656 242.23007241383806 497.59168279621235 243.43143130533807 499.2467346746172 244.57016492224437 500.901786553022 245.7088985391507 503.01074729978166 246.78071939908983 505.11970804654123 247.85254025902893 506.88463704407275 249.04886646670406 508.64956604160426 250.24519267437915 510.3111135094725 251.3832977942288 511.9726609773407 252.52140291407846 513.767023157207 254.3129360576798 515.5613853370731 256.1044692012811 517.0886164238317 257.13408769103336 518.6158475105902 258.1637061807856 519.8488701694066 259.4021492223503 521.081892828223 260.64059226391504 522.7395868158973 262.3193028151038 524.3972808035716 263.9980133662926 526.0667887908422 265.69009735470786 527.7362967781129 267.3821813431232 528.4243010712946 268.7042366361572 529.1123053644764 270.0262919291912 530.630392837619 271.51423838591245 532.1484803107616 273.0021848426337 533.4013796580434 275.4260068096117 534.6542790053254 277.8498287765897 535.7074060759026 279.45251802877436 536.7605331464797 281.05520728095905 538.4077926054331 283.2542802000635 540.0550520643865 285.45335311916784 540.7087725662741 287.33231688571675 541.3624930681618 289.21128065226566 542.9290960916214 291.2531821033079 544.4956991150812 293.29508355435013 545.1658261915225 295.7623847383873 545.8359532679636 298.2296859224245 546.840578801203 299.70164294780193 547.8452043344423 301.1735999731794 548.4736140889074 303.01653510924996 549.1020238433725 304.8594702453205 550.170095590692 306.9934470343078 551.2381673380113 309.12742382329515 552.350341578006 311.3607082486691 553.4625158180007 313.5939926740431 554.0689506686576 315.9635852194513 554.6753855193147 318.33317776485956 555.1682149286545 319.32864182877233 555.6610443379943 320.3241058926851 556.2624316133047 322.681340227791 556.863818888615 325.03857456289694 557.4103470430624 327.25730434098205 557.9568751975098 329.4760341190671 558.9755902899819 330.97037184373437 559.9943053824541 332.4647095684016 560.6375929395999 334.88499396721863 561.2808804967459 337.30527836603574 561.8340509023931 339.53665747549815 562.3872213080401 341.7680365849605 562.9192288612608 343.400080452081 563.4512364144815 345.0321243192015 564.018436167856 347.30424414550737 564.5856359212305 349.57636397181324 565.1392892627064 351.80558074879445 565.6929426041823 354.03479752577573 566.7896629816385 356.7288418025513 567.8863833590946 359.4228860793269 568.9784931503809 361.60661336233943 570.0706029416674 363.79034064535205 571.1850724897741 366.0195867110577 572.2995420378809 368.2488327767633 572.8851852170706 370.01245352197895 573.4708283962603 371.7760742671946 574.5467254068567 373.9174801206336 575.6226224174532 376.05888597407267 577.2849783442226 378.78446774041015 578.9473342709921 381.5100495067477 580.5912570979588 383.6921020450594 582.2351799249253 385.8741545833712 582.8682569367928 387.7078950852176 583.5013339486603 389.5416355870641 585.0196942460348 390.98661806563507 586.5380545434092 392.431600544206 588.2739064024759 394.71908524085734 590.0097582615426 397.00656993750863 591.0592472087326 398.0705071238956 592.1087361559224 399.13444431028256 593.2124090965549 400.25654324909726 594.3160820371872 401.3786421879119 596.4724742856025 402.98025426862847 598.6288665340178 404.58186634934503 600.2711280753037 405.68706112144105 601.9133896165897 406.7922558935371 603.575109824638 407.9105914573417 605.2368300326865 409.0289270211463 606.7853013916108 409.54512274785736 608.3337727505351 410.06131847456845 609.6527684848337 411.30674311570544 610.9717642191323 412.55216775684244 613.0406608222813 413.5566112807435 615.1095574254302 414.56105480464447 617.2154281816318 415.07912643297624 619.3212989378333 415.597198061308 621.5486881164219 416.155796680599 623.7760772950105 416.71439529988993 625.4843397734641 417.2918637422281 627.1926022519176 417.8693321845662 629.7943024489919 417.83515157300064 632.3960026460662 417.80097096143504 634.7707682029295 418.372385636796 637.1455337597929 418.943800312157 639.9001726051081 419.4834664382539 642.6548114504234 420.0231325643509 645.324396586286 420.00675802150556 647.9939817221486 419.99038347866025 650.899171384508 420.5442088700105 653.8043610468674 421.09803426136074 656.4698973293775 421.0823981025968 659.1354336118876 421.06676194383283 663.123337448199 421.5734528682086 667.1112412845104 422.0801437925844 669.9465277623126 422.6372699102951 672.7818142401147 423.1943960280059 676.1010166330345 423.7229921965393 679.4202190259545 424.25158836507273 682.6468647517413 424.2248749757815 685.8735104775283 424.1981615864903 689.3409899596786 424.73878623331393 692.8084694418288 425.2794108801376 696.1561947665638 425.8161883756971 699.5039200912987 426.3529658712566 702.8504082426359 426.8909132968107 706.1968963939731 427.4288607223648 710.6208596062073 427.90641116941424 715.0448228184415 428.3839616164637 718.2903930626026 428.3701259749927 721.5359633067635 428.3562903335216 725.0258288421048 428.9084508626792 728.5156943774463 429.46061139183684 732.3969606576885 429.978214486007 736.2782269379308 430.4958175801771 740.1835177839131 431.01876340986485 744.0888086298954 431.54170923955263 746.9354902336052 432.1193516275053 749.7821718373148 432.69699401545796 753.092065020074 433.24154898918204 756.401958202833 433.7861039629061 760.9429764421327 434.8420806016202 765.4839946814325 435.8980572403342 769.2882679557358 436.4122322614075 773.092541230039 436.9264072824808 776.4641757086656 437.4874165234148 779.8358101872923 438.04842576434885 783.711206632126 438.5773457511635 787.5866030769598 439.1062657379781 792.1647467711052 440.1764342873986 796.7428904652508 441.24660283681914 800.5347933517642 441.767407579645 804.3266962382777 442.2882123224708 808.2317242292529 442.82943474304057 812.1367522202281 443.3706571636103 815.6860700313555 444.531929392664 819.2353878424829 445.6932016217176 822.9297794368003 446.19167758732675 826.624171031118 446.6901535529359 831.0605513241303 447.1974237328827 835.4969316171426 447.7046939128296 838.376227404528 448.30653956273125 841.2555231919134 448.9083852126328 844.3654436473332 448.9042903207169 847.4753641027531 448.90019542880094 852.7458819168019 449.9395817277849 858.0163997308506 450.9789680267688 861.1008536640608 450.9777348654369 864.1853075972709 450.9765017041049 868.7925593367532 451.4985935023716 873.3998110762356 452.02068530063826 876.593439130234 452.0369564236346 879.7870671842322 452.0532275466309 883.3346365554946 452.64103792555704 886.882205926757 453.22884830448317 890.0201524730554 453.23512638323194 893.1580990193538 453.2414044619807 897.2295068969541 453.79713504300406 901.3009147745545 454.3528656240274 904.4714995312391 454.3625972510696 907.6420842879238 454.3723288781117 910.9847970354897 454.3888795334304 914.3275097830555 454.40543018874905 918.9334114121378 454.9235742106121 923.5393130412202 455.4417182324752 926.1827673876357 455.47143672821113 928.8262217340512 455.5011552239471 932.1673748444637 455.5176841925834 935.5085279548762 455.53421316121967 938.5309035370151 456.13940247767187 941.553279119154 456.74459179412406 945.9180845168567 457.24164478437535 950.2828899145592 457.73869777462664 953.1662097112968 458.3407799604167 956.0495295080344 458.9428621462067 959.345914477491 459.50470071727386 962.6422994469475 460.06653928834106 964.6927951729552 460.09456313033706 966.743290898963 460.12258697233307 969.2389776209482 460.74382475143125 971.7346643429333 461.36506253052937 974.6536422861047 462.53851957993925 977.572620229276 463.71197662934907 980.1625522314987 464.2377717753899 982.7524842337215 464.76356692143065 985.0276732129379 465.3616013354458 987.3028621921543 465.9596357494609 990.0316701433757 466.523360314995 992.760478094597 467.0870848805291 995.0358248221241 467.68194917237486 997.3111715496514 468.2768134642206 999.0524887268277 468.88460312054997 1000.7938059040041 469.49239277687934 1003.4501448032345 470.03082992400505 1006.1064837024647 470.5692670711307 1008.3793094764285 471.1590510721714 1010.6521352503921 471.7488350732121 1012.390401576562 472.3520712482488 1014.128667902732 472.95530742328555 1016.2802174934706 473.51242691459936 1018.4317670842091 474.0695464059131 1020.659732513347 474.6465248658741 1022.8876979424848 475.223503325835 1024.1741716478443 475.86544018930556 1025.4606453532037 476.5073770527762 1027.5046528219627 477.017395322266 1029.548660290722 477.5274135917559 1031.2797748480991 478.1229656939744 1033.0108894054763 478.71851779619294 1034.6767525983323 479.29531230168243 1036.342615791188 479.872106807172 1038.008126457686 480.44772744917714 1039.673637124184 481.02334809118236 1041.3394369698917 481.59802641072565 1043.0052368155993 482.1727047302689 1044.671332643165 482.7465150107463 1046.3374284707304 483.32032529122364 1048.0047498285571 483.8937218884628 1049.6720711863836 484.46711848570186 1050.8755633181215 485.07805911306355 1052.0790554498594 485.6889997404253 1054.1971948422258 486.2256886998532 1056.3153342345922 486.7623776592811 1057.133111447904 487.47118234117397 1057.9508886612155 488.1799870230668 1059.3560702332322 488.60108629364834 1060.761251805249 489.0221855642299 1061.73526235275 489.0264355434373 1062.7092729002509 489.0306855226446 1064.621203980686 490.21989238290973 1066.533135061121 491.4090992431749 1067.928474500989 491.34525734025 1069.3238139408572 491.2814154373251 1070.6908776625542 491.9060895854721 1072.0579413842513 492.5307637336191 1074.1912402185562 493.06724051574065 1076.3245390528614 493.6037172978622 1077.130580314899 494.3038006590732 1077.9366215769362 495.0038840202842 1080.0030270870684 496.0061768226161 1082.0694325972006 497.0084696249481 1083.18618119452 497.58129815862725 1084.3029297918392 498.1541266923064 1085.8885858230233 498.6880070453703 1087.4742418542073 499.22188739843415 1089.7769241561443 500.36118357724945 1092.0796064580813 501.5004797560647 1093.1985111503136 502.07342283955256 1094.317415842546 502.6463659230405 1096.5382662903219 503.7532919498724 1098.7591167380976 504.8602179767043 1099.8769287733548 505.432341047229 1100.9947408086118 506.0044641177537 1102.5882440305204 506.54059112701907 1104.1817472524292 507.0767181362845 1105.9818749436254 508.25450610471705 1107.7820026348213 509.43229407314965 1108.8361973115286 509.9691381160111 1109.890391988236 510.5059821588726 1111.503419165793 511.0529159766246 1113.1164463433502 511.59984979437667 1113.8612566226482 512.2764312748168 1114.6060669019462 512.9530127552569 1115.5804008310793 513.425273307382 1116.5547347602123 513.897533859507 1117.6405908427218 514.4571959058076 1118.7264469252311 515.016857952108 1119.183484129167 515.0216634384913 1119.6405213331032 515.0264689248744 1120.3494148812533 515.6506642061156 1121.0583084294037 516.2748594873569 1121.4607623352977 516.2220248117029 1121.8632162411914 516.1691901360489 1122.5675333566473 516.7911693079839 1123.2718504721036 517.413148479919 1123.6789365382701 517.3619169648257 1124.086022604437 517.3106854497325 1124.7860985297332 517.9305248569474 1125.4861744550294 518.5503642641622 1126.2662451803262 518.9239685034029 1127.046315905623 519.2975727426435 1126.5965447973094 519.4018724556342 1126.146773688996 519.506172168625 1127.1417626000894 519.9594374068345 1128.1367515111826 520.412702645044 1127.6986758854996 520.5284446389214 1127.2606002598166 520.6441866327989 1128.3587604708646 521.6495727661975 1129.4569206819124 522.6549588995961 1129.4568781811204 522.6599587189611 1129.4568356803281 522.6649585383261 1129.456793179536 522.6699583576911 1129.456750678744 522.6749581770562 1128.3355435089557 522.5565110032005 1127.2143363391672 522.4380638293449 1126.7668672852801 521.448818329695 1126.319398231393 520.4595728300451 1126.209277942016 520.9034451601706 1126.0991576526387 521.3473174902961 1125.639914315247 520.346569193402 1125.1806709778552 519.345820896508 1124.8463618115948 519.7100322276647 1124.5120526453343 520.0742435588213 1124.097747659039 519.5890349561517 1123.6834426727437 519.1038263534822 1122.9760278232593 519.0432019303416 1122.2686129737747 518.9825775072012 1121.8585501918565 518.4995086735748 1121.448487409938 518.0164398399484 1120.7365597198464 517.9542127648309 1120.024632029755 517.8919856897135 1119.6189441453312 517.4111927987899 1119.2132562609072 516.9303999078662 1118.5464409882866 516.9257326464465 1117.8796257156662 516.9210653850266 1116.7366791219597 516.3662865133281 1115.5937325282534 515.8115076416296 1114.3484975298898 515.1693272722227 1113.103262531526 514.527146902816 1112.7148272620327 514.0892870460978 1112.3263919925394 513.6514271893797 1110.605549172123 513.0838707727415 1108.8847063517064 512.5163143561034 1107.7005476363047 511.9293557633408 1106.516388920903 511.3423971705783 1104.9733340500943 510.3008058876304 1103.4302791792854 509.2592146046826 1101.6898332407077 508.6808511166446 1099.9493873021302 508.1024876286065 1098.8195327084632 507.5507771325263 1097.689678114796 506.9990666364461 1095.471671081138 505.8865342587035 1093.2536640474802 504.77400188096084 1092.1248236239244 504.2231423266576 1090.9959832003683 503.67228277235427 1088.850574272153 502.5921994448298 1086.7051653439376 501.5121161173053 1084.9567528806276 500.9314759778498 1083.2083404173177 500.3508358383943 1082.077622233618 499.79986174226644 1080.9469040499187 499.2488876461386 1078.5837244539737 498.031801881447 1076.2205448580287 496.81471611675533 1075.8839478361842 496.40038949323224 1075.54735081434 495.98606286970914 1073.2417519929754 495.40817815220475 1070.936153171611 494.83029343470037 1070.0649845397306 494.3498699993282 1069.19381590785 493.869446563956 1067.245973470033 493.7868197749269 1065.2981310322161 493.7041929858978 1063.8761934603426 492.6834132456719 1062.4542558884693 491.662633505446 1061.190071357401 491.657410739037 1059.9258868263325 491.6521879726279 1058.0065109586876 490.9588465824538 1056.0871350910427 490.26550519227965 1055.762154007742 489.8598992165688 1055.4371729244413 489.45429324085796 1053.1165346593066 488.87654153953036 1050.795896394172 488.29878983820277 1049.7610344609684 487.7953198079791 1048.726172527765 487.29184977775554 1047.050232166841 486.7508057164067 1045.3742918059172 486.20976165505795 1043.697125914684 485.66916153295836 1042.019960023451 485.1285614108588 1040.3424981446888 484.5888290727984 1038.6650362659266 484.049096734738 1036.9872845407674 483.5102767159875 1035.3095328156082 482.971456697237 1033.6320551241633 482.43384054512285 1031.9545774327182 481.89622439300865 1030.3331166771031 481.3773358344715 1028.711655921488 480.85844727593434 1026.3166847018315 480.25405488782053 1023.9217134821747 479.64966249970666 1022.9604215696875 479.1771587024216 1021.9991296572003 478.70465490513647 1019.7694722778507 478.1672227074937 1017.539814898501 477.629790509851 1015.2430534091463 477.07246934040927 1012.9462919197916 476.5151481709675 1011.331744623998 476.0039736884189 1009.7171973282045 475.4927992058703 1007.5230080641852 474.9681425483231 1005.3288188001658 474.4434858907759 1002.4318784433569 473.86751263532426 999.5349380865482 473.2915393798726 997.9234409617768 472.7849183785492 996.3119438370054 472.27829737722584 994.1201955283998 471.7587210025485 991.9284472197943 471.23914462787116 989.0945643679486 470.68845785728035 986.2606815161029 470.1377710866896 984.0686957951053 469.6212850139344 981.8767100741078 469.1047989411792 978.8945790284129 468.5067921337668 975.912447982718 467.90878532635435 973.2687537559002 466.862943379777 970.6250595290823 465.8171014331997 968.6628832491106 465.3332905259623 966.7007069691389 464.84947961872484 964.2746335598273 464.86803097018066 961.8485601505157 464.88658232163647 958.467654412601 464.33401024091677 955.0867486746862 463.781438160197 952.3697485784762 463.26908036956985 949.6527484822662 462.7567225789427 945.130547000567 462.13944542199243 940.608345518868 461.5221682650422 938.0491837897158 461.0223887327579 935.4900220605637 460.52260920047365 932.1538837805837 460.5390583372968 928.8177455006037 460.55550747411996 925.8607995986297 460.57583399183574 922.9038536966558 460.5961605095515 918.6132948649453 460.00936594080827 914.3227360332347 459.422571372065 910.9788449949601 459.4390421898511 907.6349539566854 459.45551300763714 904.1095625299309 459.4558519837898 900.5841711031765 459.4561909599425 896.8640873572012 458.90690378925956 893.144003611226 458.3576166185766 889.5954248483112 458.35450178921093 886.0468460853963 458.35138695984523 882.9076718175971 457.8341493253049 879.768497549798 457.3169116907646 876.2568156716859 457.323789484301 872.7451337935739 457.33066727783745 868.4556862590425 456.74766149258494 864.1662387245111 456.16465570733243 860.5359931988484 456.1446376598959 856.9057476731856 456.12461961245936 852.1749160058687 454.95401931090316 847.4440843385518 453.783419009347 843.8767127249905 453.7698513660467 840.3093411114291 453.75628372274633 837.5881568164621 453.24368803330344 834.8669725214951 452.7310923438606 830.397500122774 452.12387203222295 825.9280277240529 451.51665172058534 821.8308471865805 450.89129479241075 817.733666649108 450.26593786423615 814.5869875963931 449.2078308441444 811.4403085436782 448.14972382405267 807.5442923510016 447.57645601026246 803.648276158325 447.00318819647225 799.6298231384262 446.4001903072258 795.6113701185274 445.79719241797926 791.2836611108983 444.647982133862 786.955952103269 443.4987718497448 783.0397752350058 442.91325049721536 779.1235983667425 442.3277291446859 775.7990970042183 441.77424789408434 772.4745956416942 441.22076664348276 768.4685940322267 440.61110877652175 764.4625924227591 440.00145090956073 760.1072900357517 438.8380489755323 755.7519876487444 437.67464704150376 752.3846085901805 437.1047913576731 749.0172295316165 436.5349356738424 746.2728832901084 435.9981374068075 743.5285370486002 435.4613391397725 739.6328835295767 434.86987499044517 735.7372300105532 434.27841084111776 731.827003325952 433.6816531084826 727.9167766413508 433.08489537584734 724.7199590712544 432.532037476848 721.5231415011581 431.9791795778487 718.0634038445539 431.95587144583703 714.6036661879497 431.9325633138254 710.1311691079629 431.295703109039 705.6586720279762 430.65884290425254 702.3185762254674 430.0823503476212 698.9784804229586 429.50585779098986 695.6396823115404 428.92830446072855 692.3008842001221 428.35075113046724 689.0818404032161 427.78632709100395 685.8627966063102 427.2219030515406 682.4029375350462 427.18571717742816 678.9430784637824 427.1495313033157 675.5850699846783 426.5637174928829 672.227061505574 425.97790368245006 669.4714204842226 425.4206689791049 666.715779462871 424.8634342757597 662.9216639249419 424.265107448381 659.1275483870128 423.6667806210023 656.2209416350304 423.6417515484535 653.3143348830481 423.61672247590474 650.6474421901368 423.0654991866868 647.9805494972254 422.51427589746885 645.0780714383254 422.488429542604 642.1755933794253 422.4625831877392 639.3675427788514 421.88791848801475 636.5594921782777 421.31325378829024 634.467242702927 420.7796197772842 632.3749932275763 420.2459857662782 629.4234148473106 420.20233266047364 626.471836467045 420.15867955466916 624.8273644905313 419.62173691007354 623.1828925140176 419.08479426547785 620.9525804188818 418.52890171459535 618.722268323746 417.9730091637128 616.3705967954977 417.3671680642607 614.0189252672494 416.7613269648086 611.648984206508 415.53699900425147 609.2790431457664 414.3126710436943 608.3597448113734 413.3386365901505 607.4404464769804 412.36460213660666 605.6455949280257 411.75691403655355 603.8507433790711 411.14922593650044 602.1691227187755 410.03863035008305 600.4875020584798 408.92803476366566 598.777190164072 407.79498623356517 597.0668782696641 406.6619377034646 594.7845126882858 404.9297591908582 592.5021471069074 403.19758067825177 591.3769182255489 402.0906679485554 590.2516893441904 400.98375521885896 589.0628255835793 399.79997636315176 587.8739618229683 398.61619750744455 586.2667116268631 396.4554516228202 584.6594614307579 394.2947057381959 582.8533439597524 392.3963450439451 581.0472264887468 390.4979843496942 580.5469182959754 388.9788803008131 580.046610103204 387.45977625193194 578.3473524039562 385.17473485986125 576.6480947047082 382.8896934677905 574.9767409757197 380.0527145193232 573.3053872467312 377.2157355708559 572.1617946552956 374.90883101125473 571.0182020638598 372.6019264516536 570.4799321018568 371.01281205174695 569.9416621398539 369.4236976518403 568.8273115671759 367.19516124911206 567.712960994498 364.9666248463838 566.5763299845978 362.68325752619376 565.4396989746975 360.39989020600376 564.3170102683908 357.53129461266224 563.1943215620842 354.6626990193207 562.6335344999313 352.4342929935825 562.0727474377784 350.2058869678444 561.5255667837739 348.0296963926459 560.9783861297693 345.85350581744746 560.3959520864698 344.13281589660465 559.8135180431705 342.41212597576185 559.2521677012712 340.18588228255385 558.6908173593719 337.9596385893458 558.2102722835284 335.9316125924264 557.7297272076848 333.90358659550697 556.5290937327026 332.04519121078 555.3284602577203 330.18679582605307 554.7605480027712 327.9479826331343 554.1926357478221 325.7091694402155 553.6796419372013 323.6274853403505 553.1666481265804 321.5458012404856 552.544956109736 320.2934687556684 551.9232640928915 319.0411362708512 551.4057864708036 316.9530268660649 550.8883088487156 314.86491746127854 549.771741608837 312.6405800174814 548.6551743689585 310.4162425736842 547.5037571870287 308.1020187903828 546.3523400050988 305.7877950070813 545.8569157692992 304.2873576536352 545.3614915334997 302.7869203001891 544.1466088198483 300.9061435376515 542.9317261061968 299.0253667751138 542.468626957208 297.03504516215094 542.0055278082193 295.04472354918806 540.2476537417899 292.6383152715964 538.4897796753604 290.23190699400476 538.0101947950725 288.75821613381754 537.5306099147845 287.2845252736303 535.8440797255479 285.0352884756178 534.1575495363113 282.7860516776053 532.9817761305023 281.0360876579963 531.8060027246934 279.28612363838727 530.8207076706112 277.2617952932359 529.835412616529 275.2374669480845 528.029022321193 273.39151366095416 526.222632025857 271.54556037382383 525.7772511028148 270.6293225454176 525.3318701797726 269.7130847170114 523.6581962778713 268.0619572388815 521.98452237597 266.4108297607516 520.3083463599512 264.75575040301436 518.6321703439324 263.1006710452771 517.6268389377582 262.1101829356253 516.6215075315839 261.11969482597345 514.805476893806 259.91106989651723 512.9894462560281 258.702444967061 511.44054603638847 257.160173751236 509.89164581674885 255.61790253541102 508.2098514769384 254.5271563380434 506.528057137128 253.43641014067578 504.94030218901116 252.40388516435712 503.35254724089435 251.3713601880385 501.0133087724746 250.21434553733587 498.6740703040549 249.05733088663328 496.98590935288877 247.96729302380578 495.29774840172263 246.8772551609783 493.72662351185494 245.85915551359642 492.15549862198725 244.84105586621453 491.01992812792 244.30881384076375 489.8843576338528 243.77657181531296 487.8641348323797 242.7747897008412 485.84391203090655 241.77300758636946 483.3844463126047 241.16206018406803 480.9249805943029 240.55111278176662 478.956104860722 239.5670697868131 476.9872291271411 238.5830267918596 473.91787753935944 237.95199720817976 470.84852595157776 237.32096762449993 468.84298274287084 236.3342829850117 466.8374395341639 235.34759834552347 464.6592119280042 234.84827938160169 462.4809843218445 234.34896041767993 459.6867367859861 233.82795913524097 456.89248925012777 233.306957852802 454.0206446333125 232.76965386876356 451.14880001649726 232.2323498847251 446.6147366785698 231.04702884057207 442.0806733406423 229.861707796419 438.89845374735705 228.81026656187424 435.71623415407174 227.7588253273295 433.02144096068776 227.25995452901066 430.3266477673037 226.7610837306918 425.22902134303956 226.1074643171417 420.1313949187754 225.4538449035916 417.4008876135375 224.9460196246798 414.6703803082997 224.43819434576798 410.7447388238303 223.87286541776007 406.8190973393609 223.30753648975218 403.4985592996211 222.77754481095906 400.1780212598813 222.2475531321659 396.2795876669277 221.6887373182767 392.3811540739741 221.12992150438748 388.6646179768523 220.58845579226985 384.9480818797305 220.04699008015223 380.25429298479713 219.98271656374698 375.56050408986374 219.9184430473417 373.0119519216029 219.42946506360386 370.463399753342 218.94048707986605 366.3181509808606 218.91165422521507 362.1729022083792 218.8828213705641 359.628226229035 218.3977327768044 357.0835502496909 217.91264418304465 352.63584346531786 217.8821092307045 348.18813668094487 217.85157427836432 344.2970466069344 217.85357446591829 340.4059565329239 217.85557465347225 337.6104277344673 217.90049376140882 334.8148989360107 217.94541286934538 330.9144565466447 217.95136363299198 327.0140141572787 217.9573143966386 323.1182129640607 217.964095480983 319.22241177084265 217.9708765653274 315.8744135467192 218.00400586606614 312.5264153225958 218.0371351668049 308.62591767756777 218.04752812657932 304.7254200325397 218.0579210863538 300.8248980668915 218.06932997788866 296.9243761012433 218.08073886942353 293.0192112175331 218.09301147243454 289.11404633382284 218.10528407544555 284.6628589751226 218.0837181351044 280.21167161642234 218.06215219476326 276.51755127420904 218.06380897461565 272.82343093199574 218.06546575446808 268.7121454220903 218.6427683853023 264.60085991218483 219.22007101613656 260.1458618481494 219.19864939717232 255.69086378411404 219.17722777820808 251.79716819129646 219.1891759095275 247.9034725984789 219.20112404084693 244.76723745141427 219.229235359443 241.63100230434964 219.2573466780391 237.51884662936413 219.83921871747833 233.4066909543786 220.42109075691755 229.51098471039973 220.4396248656108 225.61527846642082 220.45815897430404 222.5305598319997 220.48680045450237 219.44584119757857 220.51544193470068 215.85288393603275 221.1372892499644 212.25992667448693 221.7591365652281 209.74241642964796 221.81001474238604 207.224906184809 221.86089291954397 203.6107285619692 222.4956546710908 199.9965509391294 223.1304164226376 197.209698474063 223.21102566031055 194.4228460089966 223.2916348979835 192.00822342172876 223.34697579006064 189.59360083446091 223.40231668213778 186.44054463699416 224.08550083193634 183.2874884395274 224.7686849817349 180.48912629240948 224.8733653564155 177.69076414529155 224.9780457310961 174.35696736223736 225.08274584827728 171.02317057918313 225.1874459654585 168.7935632686934 225.3072414940662 166.56395595820365 225.4270370226739 164.2549460514054 225.51917228197038 161.94593614460712 225.61130754126685 158.68871580326459 226.35767038477576 155.43149546192205 227.1040332282847 152.63551829992394 227.266793444994 149.83954113792586 227.42955366170332 147.05270188020106 227.6072351587904 144.26586262247625 227.78491665587742 141.18206941540825 227.97409801285653 138.09827620834025 228.16327936983566 131.69730784334183 228.75689365907033 125.29633947834341 229.35050794830497 120.86949809528298 229.46635838775225 116.44265671222253 229.58220882719954 114.51120780927906 229.65195204586576 112.57975890633558 229.721695264532 102.25905572641074 227.42267892831163 91.93835254648589 225.12366259209125 91.93724822998047 225.1137237548828 Z" fill="#D6FF1D"></path><path d="M 210.0662384033203 482.5357763671875 Q 210.0662384033203 482.5357763671875 217.24842560577395 480.0845394371394 224.43061280822755 477.63330250709134 226.8129051957443 477.65259048289346 229.195197583261 477.6718784586956 231.16937082101924 478.4591883776579 233.14354405877748 479.2464982966202 234.97454438817505 479.0850872822475 236.80554471757262 478.9236762678748 239.54748564002006 479.642131495879 242.28942656246747 480.3605867238833 244.0018478099799 480.41266995680746 245.71426905749232 480.46475318973165 248.88320121914427 481.15891897464724 252.05213338079622 481.8530847595629 254.81502473851663 482.5025025960406 257.577916096237 483.15192043251824 259.44540168075537 483.20894702215776 261.3128872652737 483.26597361179734 264.4258541179785 483.9305762709628 267.5388209706832 484.59517893012816 269.9890669894768 484.6398898721318 272.43931300827035 484.68460081413536 276.0430278733369 485.31181479093607 279.64674273840336 485.93902876773683 283.50285670802043 486.51520746590853 287.35897067763744 487.09138616408023 290.73305403608174 487.698916205217 294.1071373945261 488.3064462463538 296.64441115765055 488.3476449007626 299.18168492077507 488.38884355517143 303.2821651511531 488.9696559326619 307.38264538153106 489.55046831015244 311.8133810813413 490.0837031866388 316.24411678115155 490.6169380631252 321.9398650713141 491.6272170225898 327.63561336147666 492.6374959820544 331.98624712097524 493.1719006875543 336.33688088047376 493.7063053930542 341.32965558081867 494.21293127629895 346.3224302811635 494.7195571595437 351.5288898725488 495.80879679724444 356.735349463934 496.8980364349452 361.7618863180502 497.96738659261734 366.78842317216635 499.03673675028944 372.3366996286062 500.05169160264336 377.88497608504605 501.0666464549972 384.7067897456245 502.52482435960155 391.528603406203 503.9830022642059 395.5034363003677 505.1831647030861 399.4782691945324 506.38332714196633 406.65969789291046 507.7304633012319 413.84112659128857 509.0775994604974 419.58936179812235 510.74407547495093 425.3375970049562 512.4105514894045 430.6429606483995 514.733898212648 435.9483242918427 517.0572449358915 441.2468863341596 518.5929245643302 446.54544837647654 520.128604192769 451.852001457912 522.4584800591875 457.15855453934745 524.7883559256061 465.0910196429129 527.6839728453367 473.0234847464784 530.5795897650673 478.5487817665261 532.7928377514636 484.07407878657375 535.0060857378597 489.8758756731302 537.8654640316117 495.6776725596867 540.7248423253639 496.77926480729144 541.4067958829887 497.8808570548962 542.0887494406136 503.4292892895238 544.8289501494019 508.9777215241515 547.5691508581903 512.9697224275633 549.9838181847545 516.9617233309751 552.3984855113187 519.7301768828099 554.2359197390588 522.4986304346446 556.0733539667988 527.4253248332595 558.8003588163069 532.3520192318744 561.5273636658152 535.8217995941884 563.9653832840568 539.2915799565026 566.4034029022982 542.5791369963504 568.7203723499209 545.866694036198 571.0373417975436 549.1583542347527 573.343660528969 552.4500144333073 575.6499792603945 555.7472521080048 577.9482116817633 559.0444897827023 580.246444103132 561.3168553830296 582.0788962903688 563.5892209833569 583.9113484776055 566.371385833203 586.2400804506156 569.153550683049 588.5688124236254 572.3225589071072 590.7420642278661 575.4915671311654 592.9153160321067 578.3721994358332 595.294970882718 581.2528317405008 597.6746257333291 583.7996196645802 599.2726063845948 586.3464075886596 600.8705870358606 589.2932966938425 603.2743107245191 592.2401857990254 605.6780344131776 595.5973151761964 608.4897622358963 598.9544445533674 611.3014900586151 601.499259058538 612.8808542304955 604.0440735637086 614.460218402376 607.4353670527139 616.7459884507632 610.8266605417193 619.0317584991504 614.3063472313999 621.9176252666344 617.7860339210804 624.8034920341184 621.4530328442784 626.869277345376 625.1200317674763 628.9350626566335 627.4931148925639 630.7732524847393 629.8661980176513 632.6114423128449 633.1195388645372 634.7986398678422 636.3728797114231 636.9858374228395 638.4175598187777 638.0685531109441 640.4622399261323 639.1512687990486 644.5715819067553 642.010788297021 648.6809238873784 644.8703077949934 651.3507386576832 646.5217793355729 654.0205534279879 648.1732508761523 657.2473480052324 649.8087792044216 660.4741425824769 651.444307532691 663.97265820871 653.7656934035329 667.471173834943 656.0870792743747 670.1838124144433 657.7592758837219 672.8964509939436 659.4314724930691 675.6612452768993 661.1318126833701 678.4260395598551 662.8321528736711 680.9978109624133 663.8890914862183 683.5695823649714 664.9460300987654 687.0071049746562 666.6684576748978 690.4446275843409 668.3908852510301 692.2432691963661 669.6330968576582 694.0419108083913 670.8753084642863 696.5721316108886 671.8964656383049 699.1023524133859 672.9176228123235 702.5367255055968 674.630138221839 705.9710985978077 676.3426536313546 707.7360568139864 677.5645158353007 709.501015030165 678.7863780392466 711.862459477434 679.2083776919902 714.2239039247028 679.6303773447338 717.7022072697129 680.7829164201173 721.180510614723 681.9354554955007 725.0336223656481 683.0146232207867 728.8867341165732 684.0937909460727 731.790026757157 685.2709780586301 734.6933193977407 686.4481651711877 736.2941104437728 687.0237985650907 737.8949014898047 687.5994319589937 741.5778941080919 688.0916877884215 745.260886726379 688.5839436178493 748.1146290836621 689.1769491242273 750.968371440945 689.7699546306054 755.4803466480554 690.8352899008141 759.9923218551658 691.9006251710227 762.2297592557107 692.4989807177842 764.4671966562557 693.0973362645458 769.3148163630253 693.5373838843902 774.1624360697949 693.9774315042348 777.0630274001046 694.5815433314484 779.9636187304144 695.185655158662 781.4129524118187 695.2088033291546 782.8622860932229 695.2319514996473 790.2885501635133 696.0042263805753 797.7148142338037 696.7765012615035 802.1559149909597 697.3123802304838 806.5970157481157 697.8482591994641 812.1310939946766 698.2928284783629 817.6651722412374 698.7373977572619 820.8641351853053 698.7838924562324 824.0630981293731 698.8303871552029 829.2440566639973 699.3413000382523 834.4250151986215 699.8522129213018 839.810351941547 699.7509332441139 845.1956886844724 699.6496535669258 850.2137925482621 699.6136380731286 855.2318964120517 699.5776225793313 859.6943607976112 699.5864393312396 864.1568251831708 699.5952560831479 869.719536450111 699.5121658436462 875.2822477170512 699.4290756041445 879.1951357759772 699.4762387894122 883.1080238349033 699.5234019746798 887.3376079592638 698.9946679860732 891.5671920836241 698.4659339974665 897.1643959693915 697.8211783868755 902.761599855159 697.1764227762847 907.1863703319169 696.6406145049119 911.6111408086748 696.1048062335392 915.745961052324 696.1341149395612 919.8807812959731 696.1634236455833 924.6834969894668 695.5921257867969 929.4862126829605 695.0208279280107 932.7571771458506 694.5429679361264 936.0281416087406 694.0651079442422 939.1063819083995 694.1114236576964 942.1846222080583 694.1577393711506 945.843655815175 693.6536584447438 949.5026894222917 693.149577518337 953.0821097982905 693.1811666217523 956.6615301742893 693.2127557251677 959.748961768644 692.7281756205533 962.8363933629988 692.243595515939 965.5859754510366 691.7523456534491 968.3355575390742 691.2610957909593 971.7318162868348 690.7321270836696 975.1280750345956 690.2031583763801 977.603271623429 690.2363947740305 980.0784682122624 690.2696311716809 982.5901309970144 689.7904199606473 985.1017937817664 689.3112087496137 987.663513096302 688.3075089463268 990.2252324108376 687.3038091430399 993.2497979852346 686.7116023280103 996.2743635596316 686.1193955129805 999.4619846486848 685.0645773203535 1002.6496057377379 684.0097591277265 1005.3792346460939 682.9505769428663 1008.1088635544497 681.8913947580061 1009.8741408676615 681.3458147395052 1011.6394181808731 680.8002347210044 1014.5697818317133 680.2327383751854 1017.5001454825534 679.6652420293665 1020.5397176581937 679.7332626891655 1023.579289833834 679.8012833489644 1023.5827804566294 679.8048632305965 1023.5862710794248 679.8084431122287 1023.5897617022202 679.8120229938609 1023.5932523250157 679.815602875493 1021.0228709744611 682.1124450306197 1018.4524896239064 684.4092871857463 1015.8294935004004 684.9563122661114 1013.2064973768944 685.5033373464763 1011.6094876461734 686.0816698006822 1010.0124779154523 686.6600022548882 1007.1605715541491 687.8295615454191 1004.308665192846 688.99912083595 1000.8192350834943 690.163791045251 997.3298049741427 691.3284612545518 994.7822281810617 691.8600263919909 992.2346513879806 692.3915915294301 989.2243668195356 693.6072209802901 986.2140822510905 694.8228504311502 983.162913875206 695.4486879042176 980.1117454993214 696.074525377285 978.1103743041585 696.1172340025806 976.1090031089956 696.1599426278763 972.8281301285574 696.7453536435605 969.5472571481193 697.3307646592447 966.7152227752715 697.9538758750052 963.8831884024236 698.5769870907657 960.2840168893799 699.1974549960844 956.6848453763362 699.8179229014031 953.5683693855906 699.8589049185848 950.451893394845 699.8998869357664 946.3288255777735 700.5008546877416 942.205757760702 701.1018224397168 939.7022020908378 701.1576097079961 937.1986464209734 701.2133969762755 933.7547695417584 701.8498375520514 930.3108926625432 702.4862781278275 925.1026863011454 703.0200289574768 919.8944799397475 703.5537797871262 916.2187034222668 703.5925612307612 912.5429269047862 703.6313426743964 908.0335088306549 704.2099741221973 903.5240907565236 704.7886055699983 897.9960920216022 705.2581498426623 892.4680932866809 705.7276941153265 887.7915046932835 706.3039282968854 883.114916099886 706.8801624784443 879.1985819065126 706.9273256636629 875.282247713139 706.9744888488816 869.7195361739209 706.8913986036114 864.156824634703 706.8083083583413 859.6943317010887 706.8171244316115 855.2318387674744 706.8259405048818 850.2107672712029 706.7898451713168 845.1896957749315 706.7537498377516 839.4405175014791 706.6430772466997 833.6913392280268 706.532404655648 828.8705490814835 705.9382688488288 824.0497589349403 705.3441330420095 820.5244651274628 705.3811548347829 816.9991713199853 705.4181766275564 811.4075127119486 704.7482863538544 805.8158541039119 704.0783960801525 801.2950506666809 703.4905222500565 796.7742472294499 702.9026484199607 789.8075251666733 701.4649669585087 782.8408031038967 700.0272854970569 780.927610905173 700.0409609139791 779.0144187064492 700.0546363309013 776.3053763911885 699.5443065615948 773.5963340759276 699.0339767922883 768.4612113005907 698.3595036645856 763.3260885252537 697.6850305368829 761.0681730217221 697.1595534505693 758.8102575181906 696.6340763642556 754.4350868700233 695.4800630569066 750.0599162218559 694.3260497495577 747.3228907362636 693.8046136579339 744.5858652506712 693.2831775663102 740.5056215862822 692.6609124738882 736.4253779218933 692.0386473814661 734.6638014115879 691.4904276360953 732.9022249012824 690.9422078907245 730.2145102245838 689.8905143603101 727.5267955478852 688.8388208298959 723.5884975565011 687.6892470681568 719.6501995651171 686.5396733064176 716.4516106910778 685.4727226111472 713.2530218170385 684.4057719158767 710.0610273504217 683.7038385895795 706.869032883805 683.0019052632823 705.26239352198 681.9854939105026 703.6557541601551 680.9690825577229 700.4132350331821 679.3478078032638 697.1707159062091 677.7265330488046 694.1474977789983 676.5187290658793 691.1242796517874 675.3109250829539 689.5513218243336 674.3149229705269 687.9783639968798 673.3189208581 684.7387753902833 671.7074784247718 681.4991867836868 670.0960359914435 678.4988744635949 668.9146198604598 675.498562143503 667.733203729476 672.6911323635443 666.0902023669792 669.8837025835854 664.4472010044822 667.0147260522758 662.7667436541456 664.1457495209662 661.086286303809 660.9578208722252 658.9594409342766 657.7698922234841 656.8325955647442 654.3194766015733 655.1247031791831 650.8690609796625 653.416810793622 647.9480274118444 651.7063153118705 645.0269938440263 649.9958198301191 641.3636295128591 647.3114536586392 637.700265181692 644.6270874871592 635.268456660461 643.4621167070597 632.83664813923 642.2971459269602 629.4221696591812 640.0360323961452 626.0076911791326 637.7749188653302 623.894734462644 636.2602943986519 621.7817777461555 634.7456699319736 617.6572852258993 632.3443610498869 613.532792705643 629.9430521678001 610.3259752768613 627.2663272838101 607.1191578480796 624.5896023998201 603.8333202990107 622.4269822127527 600.5474827499419 620.2643620256853 597.5107619853558 618.4816001801552 594.4740412207697 616.6988383346251 591.1541193880496 613.9479751844099 587.8341975553295 611.1971120341946 585.2089429417111 609.1525253156298 582.5836883280928 607.107938597065 579.5583133899827 605.353184787546 576.5329384518725 603.598430978027 573.8320361595668 601.5203838705079 571.1311338672612 599.4423367629889 567.6231700324046 597.1579657644611 564.115206197548 594.8735947659333 561.334539208168 592.7540163316705 558.5538722187882 590.6344378974077 556.3495902010709 589.1141556180431 554.1453081833534 587.5938733386786 550.7560218888697 585.4344031176099 547.3667355943859 583.2749328965413 543.9718098046992 581.1235483184641 540.5768840150125 578.972163740387 537.1776782780817 576.8313514002538 533.7784725411507 574.6905390601205 530.5335719037694 572.6615441549147 527.288671266388 570.6325492497091 522.2233074230257 567.8063353768025 517.1579435796637 564.9801215038958 514.335072477959 563.4647434610929 511.5122013762544 561.9493654182901 507.67545886004535 559.8971766975183 503.8387163438363 557.8449879767464 498.31805902863493 555.0506142114866 492.7974017134336 552.2562404462267 491.5943589914922 551.785942289088 490.39131626955077 551.3156441319493 485.0485381687138 548.6122524730417 479.7057600678768 545.9088608141343 474.0493421906451 543.6456223835569 468.39292431341346 541.3823839529796 460.77071357093234 537.6104417354276 453.14850282845117 533.8384995178756 448.4158475600756 531.7200656614768 443.6831922916999 529.6016318050781 437.846917956314 527.7846574910888 432.010643620928 525.9676831770994 427.27645136848935 523.8428006900463 422.54225911605073 521.7179182029931 417.118329957872 520.041212336278 411.6944007996932 518.364506469563 404.4447456833999 516.3777735667182 397.19509056710666 514.3910406638735 393.32175760666956 513.3529598121918 389.44842464623247 512.3148789605102 382.916156406274 510.4392676405849 376.38388816631556 508.56365632065956 370.7974107854649 507.34976053901096 365.2109334046142 506.1358647573623 360.207624999594 504.97644410924477 355.20431659457375 503.8170234611273 350.3810396733602 502.6868838474971 345.5577627521466 501.5567442338669 340.53003486446266 500.94887962562507 335.5023069767787 500.34101501738326 330.9187822153111 499.7515868406167 326.3352574538435 499.1621586638501 320.9057762696984 497.95305972914196 315.47629508555326 496.74396079443375 311.0012586040631 496.1628648450993 306.52622212257285 495.5817688957649 302.84460203681124 495.0575325869685 299.1629819510497 494.533296278172 296.1185901033158 494.5650224477596 293.07419825558185 494.59674861734715 289.75233637115105 494.0898686795177 286.4304744867203 493.5829887416882 282.4951771133776 493.044806618804 278.559879740035 492.50662449591977 275.4865140742289 492.028820720966 272.4131484084228 491.5510169460123 269.2913609669028 491.586334974231 266.1695735253828 491.6216530024498 263.7197893169605 491.18120698104747 261.2700051085381 490.74076095964506 258.6703463807619 490.7883157373142 256.0706876529857 490.83587051498336 253.2615312264009 490.3709575314083 250.4523747998161 489.9060445478332 248.05865061771857 489.49516232505084 245.66492643562103 489.08428010226845 242.91956669887384 489.12697068437075 240.17420696212665 489.16966126647304 238.44922789010582 488.7830987507258 236.72424881808496 488.39653623497856 233.0113715885437 488.225733248354 229.29849435900246 488.0549302617294 229.02415541375726 487.7373022687044 228.74981646851205 487.4196742756794 226.5902146383698 487.43896225148154 224.43061280822755 487.45825022728366 217.24842560577395 485.0070132972356 210.0662384033203 482.5557763671875 210.0662384033203 482.5457763671875 Z" fill="#D6FF1D"></path><path d="M 761.7083941137877 138.17885112513028 Q 761.7083941137877 138.17885112513028 769.9622373340646 137.41337966127702 778.2160805543415 136.64790819742373 781.0244765301794 137.14369806569084 783.8328725060173 137.63948793395792 787.0915801309235 138.17708857181472 790.3502877558296 138.71468920967152 793.6787396691318 139.35730919327534 797.0071915824338 139.99992917687914 799.8499452967137 140.69864596607053 802.6926990109935 141.39736275526192 805.4562948124035 142.07098816604898 808.2198906138136 142.74461357683603 810.9847189875748 143.40807638722654 813.749547361336 144.07153919761706 816.5157746152305 144.72588250102746 819.282001869125 145.38022580443786 823.5798402364853 145.94232700253673 827.8776786038457 146.5044282006356 830.3191038647042 147.19088714270998 832.7605291255627 147.87734608478434 835.1069352563379 147.91009067796972 837.4533413871133 147.9428352711551 841.0704652625095 148.57948938279253 844.6875891379058 149.21614349442996 847.5154245189974 149.8507779608385 850.3432599000892 150.4854124272471 853.3649683262305 150.50944548263658 856.3866767523718 150.5334785380261 859.9824317686287 151.15165820877644 863.5781867848856 151.76983787952676 866.9134921363541 152.36736764182615 870.2487974878227 152.96489740412557 873.3448315690546 152.98790956731608 876.4408656502865 153.01092173050662 881.6107692061407 153.5095064416122 886.7806727619951 154.00809115271778 890.2127136063543 154.6150467781324 893.6447544507135 155.22200240354704 897.2961966384177 155.220781068468 900.9476388261218 155.219559733389 906.6684266503169 155.6675374708051 912.389214474512 156.11551520822118 916.562138417404 157.289643351354 920.735062360296 158.4637714944868 923.6680612041184 158.45950747060948 926.6010600479409 158.4552434467322 933.0112761529433 159.4113577827687 939.4214922579456 160.3674721188052 943.0019820493881 161.58731812085497 946.5824718408306 162.80716412290474 950.7198995713982 163.29448911722784 954.8573273019656 163.78181411155091 959.0051386386978 164.96316868840506 963.1529499754299 166.14452326525924 968.0798301786614 167.18247396316212 973.0067103818928 168.220424661065 976.0447180768208 169.4737037169811 979.0827257717486 170.7269827728972 983.8461700313844 171.7122994299167 988.6096142910201 172.69761608693622 992.8084366971619 174.47137637816598 997.0072591033038 176.24513666939578 1000.7054268335344 177.31660604876748 1004.4035945637648 178.38807542813922 1008.4959172444472 180.13414456865723 1012.5882399251296 181.88021370917528 1015.7953382109845 182.99274465284896 1019.0024364968392 184.1052755965226 1023.5161936178885 185.76472510085733 1028.0299507389377 187.42417460519204 1030.842068455388 188.61064480331663 1033.654186171838 189.7971150014412 1038.740103670615 191.95349379910692 1043.8260211693919 194.10987259677265 1045.8006259017434 194.65955708082066 1047.775230634095 195.2092415648687 1051.4133968227513 197.01758651914196 1055.0515630114078 198.8259314734152 1057.7047435887755 199.94156061554872 1060.3579241661432 201.05718975768227 1063.1244566917533 202.21661791138845 1065.8909892173633 203.37604606509464 1069.1456543516124 204.49029887249839 1072.4003194858612 205.6045516799021 1075.453364153998 207.4306271131867 1078.506408822135 209.25670254647125 1080.625262807773 210.36975918523905 1082.744116793411 211.48281582400682 1086.072371136941 213.15754471024735 1089.4006254804713 214.83227359648788 1092.0859225172283 215.94364141155575 1094.7712195539852 217.0550092266236 1097.2731449049024 218.91550001072676 1099.7750702558194 220.7759907948299 1102.438513494099 222.3949673186073 1105.1019567323785 224.01394384238475 1107.422147729878 225.78401169097936 1109.7423387273773 227.554079539574 1111.9530975516618 229.25090357077 1114.1638563759464 230.94772760196602 1116.8356157500793 232.56402603385806 1119.5073751242123 234.1803244657501 1121.8256343473556 235.94233876347232 1124.143893570499 237.70435306119452 1127.0621271603977 240.57555415333246 1129.9803607502968 243.44675524547037 1131.6375747997229 245.15306325747153 1133.294788849149 246.8593712694727 1136.0861295248822 249.62365570065597 1138.8774702006153 252.38794013183926 1140.64352114972 254.75828643992287 1142.409572098825 257.12863274800645 1144.5208442701899 259.2480136951238 1146.6321164415547 261.36739464224115 1148.8539371704392 263.60746349424267 1151.0757578993234 265.8475323462441 1153.4627605921578 269.33289392708434 1155.8497632849924 272.8182555079245 1157.5473003429674 275.66073190681914 1159.2448374009427 278.5032083057138 1161.4612404383097 281.78283161372315 1163.6776434756764 285.0624549217324 1165.8515869291755 287.7761613358658 1168.0255303826748 290.4898677499992 1169.248820042869 292.9359726093867 1170.4721097030633 295.3820774687741 1172.1500977679934 298.713610196241 1173.8280858329238 302.04514292370794 1175.5089805044527 305.38340638775367 1177.1898751759818 308.72166985179945 1178.8105102982981 311.44131746158155 1180.4311454206147 314.16096507136365 1182.0940650196117 316.9516036843371 1183.7569846186084 319.7422422973106 1185.4797095276895 323.1507716750535 1187.2024344367708 326.55930105279634 1190.021822703403 330.8556688227717 1192.8412109700348 335.15203659274704 1193.993015815583 337.5172027420848 1195.1448206611315 339.8823688914225 1196.7556625192815 342.59478961600314 1198.3665043774315 345.3072103405838 1199.547163820389 348.2671985717419 1200.7278232633462 351.22718680289995 1202.3034968292823 353.85798948321974 1203.8791703952186 356.4887921635395 1205.0555630648419 359.4356627519102 1206.2319557344654 362.3825333402808 1207.7440573721492 364.38913594155935 1209.256159009833 366.3957385428379 1210.4969166957549 369.42730579392014 1211.7376743816765 372.4588730450024 1212.8377099813706 375.25073700589326 1213.9377455810645 378.0426009667841 1215.5246358880815 380.6807241718191 1217.1115261950986 383.31884737685414 1218.2880901344383 386.2526917285634 1219.4646540737783 389.1865360802727 1220.9856588994303 391.1981451898197 1222.506663725082 393.20975429936675 1224.7862243148572 396.5685309941701 1227.0657849046324 399.9273076889734 1228.5926835310463 401.47427515614845 1230.1195821574602 403.02124262332353 1231.870478551865 405.3641227624172 1233.62137494627 407.7070029015109 1235.7463177195318 409.8304333214402 1237.8712604927937 411.9538637413694 1239.9814287419083 413.548237805741 1242.091596991023 415.1426118701126 1244.3103285003963 416.8254552694283 1246.5290600097694 418.5082986687439 1248.7471772082754 420.1896298737983 1250.9652944067816 421.8709610788527 1253.0406564425748 422.9181811643346 1255.116018478368 423.9654012498165 1257.4785688026052 425.7287845136851 1259.8411191268424 427.49216777755373 1261.9207699548786 428.539764067782 1264.0004207829147 429.58736035801024 1266.2193014177083 430.7154908549154 1268.438182052502 431.8436213518205 1269.987873767248 432.3797613230154 1271.5375654819936 432.91590129421024 1274.206191273974 433.45028684847784 1276.8748170659542 433.9846724027454 1278.6527586889556 434.59141967513693 1280.4307003119568 435.1981669475285 1282.0966508114004 435.77660073643756 1283.762601310844 436.3550345253466 1285.915528538896 436.9077873012976 1288.068455766948 437.4605400772486 1290.103035663882 437.4559928095999 1292.137615560816 437.45144554195116 1293.8122681203808 437.47133103387586 1295.486920679946 437.49121652580055 1297.1708903382587 437.51210858188443 1298.8548599965713 437.5330006379683 1300.7408340951215 438.13737766311647 1302.6268081936719 438.7417546882647 1304.0738643494492 438.72715070133563 1305.5209205052267 438.7125467144065 1307.1904828565575 438.7289320449395 1308.8600452078886 438.74531737547244 1310.5316588720182 438.7608927636005 1312.2032725361478 438.7764681517286 1314.427417595471 438.7846943214199 1316.6515626547941 438.7929204911113 1318.880343712088 438.8006194242971 1321.1091247693819 438.80831835748296 1322.7747042067008 438.82411926893315 1324.4402836440195 438.8399201803833 1325.9235441484168 438.3304905664043 1327.4068046528141 437.82106095242534 1329.8241916723657 437.79080309261246 1332.2415786919173 437.76054523279964 1334.3180720437945 437.2310719923497 1336.3945653956716 436.7015987518997 1338.6277510505392 436.1480921715303 1340.8609367054066 435.5945855911609 1342.672995619927 435.5862487154994 1344.4850545344473 435.57791183983784 1347.0381343600013 434.501527465756 1349.5912141855554 433.4251430916741 1351.907413108085 432.84055645303397 1354.2236120306145 432.2559698143938 1356.4542343953212 431.70215943287974 1358.6848567600277 431.1483490513657 1360.3276099774018 430.61376541376933 1361.970363194776 430.07918177617296 1363.8216015924263 430.05657094269486 1365.672839990077 430.0339601092168 1367.162710333096 429.5211158500847 1368.652580676115 429.0082715909526 1370.5158229770466 429.0308717267473 1372.3790652779783 429.05347186254204 1372.3806463018764 429.0582153173414 1372.3822273257742 429.0629587721408 1372.383808349672 429.0677022269402 1372.3853893735702 429.07244568173957 1370.9053699499339 430.2093763861798 1369.4253505262975 431.3463070906201 1367.5719584660749 431.93848126186157 1365.7185664058522 432.53065543310305 1364.2264625563425 432.51751735096036 1362.7343587068326 432.50437926881773 1361.0243762748166 433.0842369647976 1359.3143938428007 433.66409466077744 1357.087174413458 434.2247740922284 1354.8599549841153 434.7854535236794 1352.709199390751 435.32461994124196 1350.5584437973869 435.8637863588046 1347.5582450412167 436.9973885772778 1344.5580462850464 438.130990795751 1343.017370228777 438.1321257320595 1341.4766941725077 438.13326066836794 1339.2521178686725 438.69408490800225 1337.027541564837 439.25490914763657 1334.6464727945033 439.83048390911677 1332.2654040241696 440.406058670597 1330.234499954128 440.385192783036 1328.2035958840866 440.3643268954751 1326.3435141615303 440.9598351934834 1324.483432438974 441.5553434914917 1322.7962786041626 441.5711444029415 1321.1091247693514 441.58694531439124 1318.8803437102513 441.594644247528 1316.6515626511512 441.6023431806648 1314.4274173052008 441.61056934458827 1312.2032719592507 441.6187955085118 1310.53162390463 441.6343702180699 1308.859975850009 441.6499449276279 1307.1862764825405 441.66625042639635 1305.5125771150717 441.68255592516476 1303.6163715462817 441.6585599659344 1301.720165977492 441.63456400670395 1300.2628776728989 441.13400311404735 1298.8055893683056 440.6334422213908 1297.1462167909935 440.6543335930688 1295.4868442136815 440.67522496474686 1293.808762480985 440.6950299383338 1292.1306807482883 440.7148349119207 1289.7075785133552 440.70081489865515 1287.2844762784218 440.6867948853896 1284.9892327766886 440.12510700053554 1282.6939892749554 439.5634191156814 1281.0165183819306 439.02744224116884 1279.3390474889059 438.4914653666563 1277.7549422498214 437.9837712938375 1276.1708370107372 437.47607722101867 1273.2861842209436 436.89597159359494 1270.40153143115 436.31586596617115 1268.5984881692898 435.7280918545421 1266.7954449074293 435.140317742913 1264.5565628992003 434.03951733888573 1262.3176808909711 432.9387169348584 1259.9396890885926 431.74809925107184 1257.561697286214 430.5574815672853 1255.4664849674289 428.98696482642754 1253.3712726486438 427.41644808556975 1250.9889920540716 426.2253443584533 1248.6067114594994 425.03424063133684 1246.3670660208004 423.3723094310973 1244.1274205821012 421.7103782308577 1241.8885101454534 420.0498791415424 1239.6495997088055 418.3893800522272 1237.3020858318214 416.6309900589197 1234.9545719548373 414.8726000656122 1232.6313446769639 412.5384063255651 1230.3081173990904 410.204212585518 1228.7156722421914 408.098622645826 1227.1232270852925 405.9930327061341 1225.2974719277954 404.16848082283843 1223.4717167702984 402.3439289395427 1221.3030667988658 399.03501665433134 1219.1344168274331 395.72610436912 1217.3215533538196 393.270568354578 1215.5086898802062 390.815032340036 1214.4471002754644 388.17673340220665 1213.3855106707229 385.53843446437725 1211.6384908054565 382.6044453087051 1209.8914709401902 379.670456153033 1208.7626659013154 376.8902866535517 1207.6338608624408 374.1101171540704 1206.636344318767 371.5789333371252 1205.6388277750934 369.04774952018 1203.8170600876842 366.5872069973683 1201.995292400275 364.1266644745566 1200.9334108402045 361.5013917732409 1199.8715292801342 358.8761190719253 1198.1133335093937 355.9348093741668 1196.3551377386534 352.9934996764083 1195.2975215891447 350.38145240353003 1194.2399054396358 347.7694051306517 1192.5167176349366 344.9188343561286 1190.7935298302375 342.0682635816055 1189.6881971806552 339.9379985978711 1188.582864531073 337.8077336141367 1185.8491757625939 333.2077521175806 1183.1154869941145 328.6077706210245 1181.4949491557163 325.3392181050168 1179.874411317318 322.07066558900914 1178.193948170568 319.28911040309345 1176.513485023818 316.5075552171778 1174.7908591001192 313.6455884039906 1173.0682331764206 310.78362159080336 1171.4059452744582 307.4355217023018 1169.7436573724956 304.0874218138002 1168.0876949255535 300.75126462760636 1166.4317324786116 297.4151074414126 1165.4071965233377 295.3939573360092 1164.3826605680638 293.3728072306057 1162.0990422408345 290.505007705412 1159.815423913605 287.6372081802183 1157.5835760357363 284.23967113138883 1155.351728157868 280.8421340825593 1153.6964102410193 278.1031857310011 1152.0410923241704 275.3642373794428 1149.9704540795296 272.18199023570094 1147.8998158348886 268.99974309195915 1145.664073090103 266.7821086354843 1143.4283303453178 264.5644741790094 1141.0911524319226 262.22607345910194 1138.7539745185275 259.8876727391945 1137.1579779269464 257.7910187274921 1135.561981335365 255.6943647157897 1132.7999635939789 252.9053215506556 1130.0379458525927 250.1162783855215 1128.3330325318025 248.46052521829458 1126.6281192110123 246.80477205106766 1123.9836026743792 244.12279008460627 1121.3390861377463 241.4408081181449 1119.1903110009785 239.85954556692576 1117.0415358642106 238.2782830157066 1114.150623242804 236.55131959919802 1111.2597106213973 234.82435618268946 1109.0126269672155 233.17790324212405 1106.7655433130337 231.5314503015586 1104.6186992749729 229.95824185233556 1102.471855236912 228.38503340311254 1099.5725469915553 226.66081291657372 1096.6732387461986 224.93659243003492 1094.7079700778763 223.46321414516632 1092.7427014095538 221.98983586029772 1089.8465430003762 220.86295957758705 1086.9503845911986 219.73608329487638 1083.6109787627383 218.07692798991633 1080.2715729342779 216.41777268495628 1077.923111189411 215.2925860330642 1075.574649444544 214.1673993811721 1073.0461588372893 212.65968557839022 1070.5176682300346 211.1519717756084 1067.0952814914785 210.03737259174335 1063.6728947529227 208.92277340787828 1060.8672055698537 207.85327107741097 1058.0615163867847 206.78376874694365 1055.1333588222394 205.66123294552756 1052.2052012576942 204.5386971441115 1049.175268604565 203.02247016940817 1046.1453359514358 201.50624319470484 1043.6152558850206 200.91324464974076 1041.0851758186054 200.32024610477671 1036.1789579270808 198.03780279239362 1031.272740035556 195.75535948001053 1028.4844568249778 194.70358558030756 1025.6961736143999 193.65181168060462 1021.3133904347912 191.97737698797124 1016.9306072551826 190.30294229533783 1013.4417088299072 189.17722926982094 1009.9528104046316 188.05151624430403 1006.2441068677855 186.46371632161816 1002.5354033309394 184.87591639893233 998.4324483877765 183.70914235909595 994.3294934446135 182.54236831925954 990.7087258570853 180.9823242511024 987.087958269557 179.42228018294523 981.8591866206323 178.1787455273826 976.6304149717076 176.93521087181995 974.058549003269 175.95963928904987 971.4866830348305 174.9840677062798 966.402583368212 173.79324704737584 961.3184837015935 172.60242638847188 957.6560160888272 171.56433688844146 953.9935484760608 170.526247388411 949.2341772594209 169.8896754626598 944.4748060427811 169.2531035369086 941.3217505458135 168.24425789217986 938.1686950488458 167.2354122474511 932.3675248278016 165.98146015699112 926.5663546067575 164.72750806653113 922.8031177690967 164.70438000228137 919.039880931436 164.68125193803158 915.383664497622 163.6360812138143 911.7274480638081 162.590910489597 906.332445504627 161.9338546744505 900.9374429454459 161.27679885930397 896.7971540236331 161.26610558470162 892.6568651018202 161.25541231009925 889.3742058203403 160.7480221092405 886.0915465388604 160.24063190838177 881.2600221467285 159.63418306693404 876.4284977545967 159.02773422548634 872.8380083997245 159.0412744502466 869.2475190448522 159.05481467500687 865.896301123033 158.5379987396301 862.5450832012137 158.0211828042533 859.454334099056 157.5343440515304 856.3635849968985 157.0475052988075 852.7081623905866 157.0620664146732 849.0527397842748 157.07662753053896 846.2990405569064 156.5969161706251 843.5453413295382 156.1172048107112 840.4854917946604 155.64882536401808 837.4256422597826 155.18044591732496 834.2090575678753 155.20371789240733 830.9924728759681 155.2269898674897 828.9385465827269 154.79902315038436 826.8846202894856 154.37105643327905 822.2954716223577 153.81873197219824 817.7063229552298 153.26640751111742 814.9004671650143 152.80632515534813 812.0946113747989 152.34624279957885 809.2872955138848 151.89527995078882 806.4799796529709 151.4443171019988 803.6713519011416 151.00351685350853 800.8627241493125 150.56271660501827 798.1239227145738 150.14700772354365 795.3851212798353 149.73129884206904 792.0270636751277 149.25949181516125 788.6690060704202 148.78768478825344 785.2499474163873 148.21070078670587 781.8308887623543 147.6337167851583 778.9830152490259 146.99637743839855 776.1351417356975 146.35903809163878 768.9196726390799 142.27872263364486 761.7042035424623 138.19840717565097 761.706298828125 138.18862915039062 Z" fill="#D6FF1D"></path></svg>