<svg id="visual" viewBox="0 0 1920 1080" width="1920" height="1080" xmlns="http://www.w3.org/2000/svg" xmlns:xlink="http://www.w3.org/1999/xlink" version="1.1"><rect x="0" y="0" width="1920" height="1080" fill="#011738"></rect><defs><linearGradient id="grad1_0" x1="43.8%" y1="100%" x2="100%" y2="0%"><stop offset="14.444444444444446%" stop-color="#d6ff1d" stop-opacity="1"></stop><stop offset="85.55555555555554%" stop-color="#d6ff1d" stop-opacity="1"></stop></linearGradient></defs><defs><linearGradient id="grad1_1" x1="43.8%" y1="100%" x2="100%" y2="0%"><stop offset="14.444444444444446%" stop-color="#d6ff1d" stop-opacity="1"></stop><stop offset="85.55555555555554%" stop-color="#05db68" stop-opacity="1"></stop></linearGradient></defs><defs><linearGradient id="grad1_2" x1="43.8%" y1="100%" x2="100%" y2="0%"><stop offset="14.444444444444446%" stop-color="#00ab92" stop-opacity="1"></stop><stop offset="85.55555555555554%" stop-color="#05db68" stop-opacity="1"></stop></linearGradient></defs><defs><linearGradient id="grad1_3" x1="43.8%" y1="100%" x2="100%" y2="0%"><stop offset="14.444444444444446%" stop-color="#00ab92" stop-opacity="1"></stop><stop offset="85.55555555555554%" stop-color="#007898" stop-opacity="1"></stop></linearGradient></defs><defs><linearGradient id="grad1_4" x1="43.8%" y1="100%" x2="100%" y2="0%"><stop offset="14.444444444444446%" stop-color="#004574" stop-opacity="1"></stop><stop offset="85.55555555555554%" stop-color="#007898" stop-opacity="1"></stop></linearGradient></defs><defs><linearGradient id="grad1_5" x1="43.8%" y1="100%" x2="100%" y2="0%"><stop offset="14.444444444444446%" stop-color="#004574" stop-opacity="1"></stop><stop offset="85.55555555555554%" stop-color="#011738" stop-opacity="1"></stop></linearGradient></defs><defs><linearGradient id="grad2_0" x1="0%" y1="100%" x2="56.3%" y2="0%"><stop offset="14.444444444444446%" stop-color="#d6ff1d" stop-opacity="1"></stop><stop offset="85.55555555555554%" stop-color="#d6ff1d" stop-opacity="1"></stop></linearGradient></defs><defs><linearGradient id="grad2_1" x1="0%" y1="100%" x2="56.3%" y2="0%"><stop offset="14.444444444444446%" stop-color="#05db68" stop-opacity="1"></stop><stop offset="85.55555555555554%" stop-color="#d6ff1d" stop-opacity="1"></stop></linearGradient></defs><defs><linearGradient id="grad2_2" x1="0%" y1="100%" x2="56.3%" y2="0%"><stop offset="14.444444444444446%" stop-color="#05db68" stop-opacity="1"></stop><stop offset="85.55555555555554%" stop-color="#00ab92" stop-opacity="1"></stop></linearGradient></defs><defs><linearGradient id="grad2_3" x1="0%" y1="100%" x2="56.3%" y2="0%"><stop offset="14.444444444444446%" stop-color="#007898" stop-opacity="1"></stop><stop offset="85.55555555555554%" stop-color="#00ab92" stop-opacity="1"></stop></linearGradient></defs><defs><linearGradient id="grad2_4" x1="0%" y1="100%" x2="56.3%" y2="0%"><stop offset="14.444444444444446%" stop-color="#007898" stop-opacity="1"></stop><stop offset="85.55555555555554%" stop-color="#004574" stop-opacity="1"></stop></linearGradient></defs><defs><linearGradient id="grad2_5" x1="0%" y1="100%" x2="56.3%" y2="0%"><stop offset="14.444444444444446%" stop-color="#011738" stop-opacity="1"></stop><stop offset="85.55555555555554%" stop-color="#004574" stop-opacity="1"></stop></linearGradient></defs><g transform="translate(1920, 1080)"><path d="M-540 0C-493.9 -53.3 -447.8 -106.5 -429.6 -177.9C-411.4 -249.4 -421.2 -338.9 -381.8 -381.8C-342.5 -424.8 -254 -421.2 -182.2 -439.8C-110.3 -458.4 -55.2 -499.2 0 -540L0 0Z" fill="#002d57"></path><path d="M-450 0C-411.6 -44.4 -373.1 -88.8 -358 -148.3C-342.9 -207.8 -351 -282.4 -318.2 -318.2C-285.4 -354 -211.7 -351 -151.8 -366.5C-91.9 -382 -46 -416 0 -450L0 0Z" fill="#005e8b"></path><path d="M-360 0C-329.3 -35.5 -298.5 -71 -286.4 -118.6C-274.3 -166.2 -280.8 -225.9 -254.6 -254.6C-228.3 -283.2 -169.3 -280.8 -121.4 -293.2C-73.6 -305.6 -36.8 -332.8 0 -360L0 0Z" fill="#00929b"></path><path d="M-270 0C-246.9 -26.6 -223.9 -53.3 -214.8 -89C-205.7 -124.7 -210.6 -169.4 -190.9 -190.9C-171.2 -212.4 -127 -210.6 -91.1 -219.9C-55.2 -229.2 -27.6 -249.6 0 -270L0 0Z" fill="#00c481"></path><path d="M-180 0C-164.6 -17.8 -149.3 -35.5 -143.2 -59.3C-137.1 -83.1 -140.4 -113 -127.3 -127.3C-114.2 -141.6 -84.7 -140.4 -60.7 -146.6C-36.8 -152.8 -18.4 -166.4 0 -180L0 0Z" fill="#86ef48"></path><path d="M-90 0C-82.3 -8.9 -74.6 -17.8 -71.6 -29.7C-68.6 -41.6 -70.2 -56.5 -63.6 -63.6C-57.1 -70.8 -42.3 -70.2 -30.4 -73.3C-18.4 -76.4 -9.2 -83.2 0 -90L0 0Z" fill="#d6ff1d"></path></g><g transform="translate(0, 0)"><path d="M540 0C528.8 71.7 517.6 143.5 486 201.3C454.3 259.1 402.3 303.1 355 355C307.6 406.9 265 466.7 206.6 498.9C148.3 531.1 74.1 535.5 0 540L0 0Z" fill="#002d57"></path><path d="M450 0C440.7 59.8 431.3 119.5 405 167.7C378.6 215.9 335.2 252.6 295.8 295.8C256.4 339.1 220.9 388.9 172.2 415.7C123.6 442.6 61.8 446.3 0 450L0 0Z" fill="#005e8b"></path><path d="M360 0C352.5 47.8 345.1 95.6 324 134.2C302.9 172.8 268.2 202 236.6 236.6C205.1 271.2 176.7 311.2 137.8 332.6C98.8 354 49.4 357 0 360L0 0Z" fill="#00929b"></path><path d="M270 0C264.4 35.9 258.8 71.7 243 100.6C227.2 129.6 201.1 151.5 177.5 177.5C153.8 203.4 132.5 233.4 103.3 249.4C74.1 265.5 37.1 267.8 0 270L0 0Z" fill="#00c481"></path><path d="M180 0C176.3 23.9 172.5 47.8 162 67.1C151.4 86.4 134.1 101 118.3 118.3C102.5 135.6 88.3 155.6 68.9 166.3C49.4 177 24.7 178.5 0 180L0 0Z" fill="#86ef48"></path><path d="M90 0C88.1 12 86.3 23.9 81 33.5C75.7 43.2 67 50.5 59.2 59.2C51.3 67.8 44.2 77.8 34.4 83.1C24.7 88.5 12.4 89.3 0 90L0 0Z" fill="#d6ff1d"></path></g></svg>