<svg id="visual" viewBox="0 0 1920 1080" width="1920" height="1080" xmlns="http://www.w3.org/2000/svg" xmlns:xlink="http://www.w3.org/1999/xlink" version="1.1"><rect x="0" y="0" width="1920" height="1080" fill="#011738"></rect><defs><linearGradient id="grad1_0" x1="43.8%" y1="100%" x2="100%" y2="0%"><stop offset="14.444444444444446%" stop-color="#d6ff1d" stop-opacity="1"></stop><stop offset="85.55555555555554%" stop-color="#d6ff1d" stop-opacity="1"></stop></linearGradient></defs><defs><linearGradient id="grad1_1" x1="43.8%" y1="100%" x2="100%" y2="0%"><stop offset="14.444444444444446%" stop-color="#d6ff1d" stop-opacity="1"></stop><stop offset="85.55555555555554%" stop-color="#00d075" stop-opacity="1"></stop></linearGradient></defs><defs><linearGradient id="grad1_2" x1="43.8%" y1="100%" x2="100%" y2="0%"><stop offset="14.444444444444446%" stop-color="#00929b" stop-opacity="1"></stop><stop offset="85.55555555555554%" stop-color="#00d075" stop-opacity="1"></stop></linearGradient></defs><defs><linearGradient id="grad1_3" x1="43.8%" y1="100%" x2="100%" y2="0%"><stop offset="14.444444444444446%" stop-color="#00929b" stop-opacity="1"></stop><stop offset="85.55555555555554%" stop-color="#005180" stop-opacity="1"></stop></linearGradient></defs><defs><linearGradient id="grad1_4" x1="43.8%" y1="100%" x2="100%" y2="0%"><stop offset="14.444444444444446%" stop-color="#011738" stop-opacity="1"></stop><stop offset="85.55555555555554%" stop-color="#005180" stop-opacity="1"></stop></linearGradient></defs><defs><linearGradient id="grad2_0" x1="0%" y1="100%" x2="56.3%" y2="0%"><stop offset="14.444444444444446%" stop-color="#d6ff1d" stop-opacity="1"></stop><stop offset="85.55555555555554%" stop-color="#d6ff1d" stop-opacity="1"></stop></linearGradient></defs><defs><linearGradient id="grad2_1" x1="0%" y1="100%" x2="56.3%" y2="0%"><stop offset="14.444444444444446%" stop-color="#00d075" stop-opacity="1"></stop><stop offset="85.55555555555554%" stop-color="#d6ff1d" stop-opacity="1"></stop></linearGradient></defs><defs><linearGradient id="grad2_2" x1="0%" y1="100%" x2="56.3%" y2="0%"><stop offset="14.444444444444446%" stop-color="#00d075" stop-opacity="1"></stop><stop offset="85.55555555555554%" stop-color="#00929b" stop-opacity="1"></stop></linearGradient></defs><defs><linearGradient id="grad2_3" x1="0%" y1="100%" x2="56.3%" y2="0%"><stop offset="14.444444444444446%" stop-color="#005180" stop-opacity="1"></stop><stop offset="85.55555555555554%" stop-color="#00929b" stop-opacity="1"></stop></linearGradient></defs><defs><linearGradient id="grad2_4" x1="0%" y1="100%" x2="56.3%" y2="0%"><stop offset="14.444444444444446%" stop-color="#005180" stop-opacity="1"></stop><stop offset="85.55555555555554%" stop-color="#011738" stop-opacity="1"></stop></linearGradient></defs><g transform="translate(1920, 1080)"><path d="M-486 0C-444 -36.1 -402 -72.2 -397.5 -129.2C-393 -186.2 -426 -264.1 -393.2 -285.7C-360.4 -307.2 -261.8 -272.5 -214 -294.5C-166.1 -316.5 -169 -395.2 -141.8 -436.5C-114.6 -477.9 -57.3 -482 0 -486L0 0Z" fill="#00335f"></path><path d="M-388.8 0C-355.2 -28.9 -321.6 -57.7 -318 -103.3C-314.4 -148.9 -340.8 -211.3 -314.5 -228.5C-288.3 -245.8 -209.4 -218 -171.2 -235.6C-132.9 -253.2 -135.2 -316.1 -113.5 -349.2C-91.7 -382.3 -45.9 -385.6 0 -388.8L0 0Z" fill="#007196"></path><path d="M-291.6 0C-266.4 -21.7 -241.2 -43.3 -238.5 -77.5C-235.8 -111.7 -255.6 -158.4 -235.9 -171.4C-216.2 -184.3 -157.1 -163.5 -128.4 -176.7C-99.7 -189.9 -101.4 -237.1 -85.1 -261.9C-68.8 -286.7 -34.4 -289.2 0 -291.6L0 0Z" fill="#00b28f"></path><path d="M-194.4 0C-177.6 -14.4 -160.8 -28.9 -159 -51.7C-157.2 -74.5 -170.4 -105.6 -157.3 -114.3C-144.1 -122.9 -104.7 -109 -85.6 -117.8C-66.4 -126.6 -67.6 -158.1 -56.7 -174.6C-45.9 -191.2 -22.9 -192.8 0 -194.4L0 0Z" fill="#71ea51"></path><path d="M-97.2 0C-88.8 -7.2 -80.4 -14.4 -79.5 -25.8C-78.6 -37.2 -85.2 -52.8 -78.6 -57.1C-72.1 -61.4 -52.4 -54.5 -42.8 -58.9C-33.2 -63.3 -33.8 -79 -28.4 -87.3C-22.9 -95.6 -11.5 -96.4 0 -97.2L0 0Z" fill="#d6ff1d"></path></g><g transform="translate(0, 0)"><path d="M486 0C445.1 43.1 404.2 86.2 377.6 122.7C351 159.1 338.7 188.9 330.9 240.4C323.1 291.9 319.8 365.2 285.7 393.2C251.5 421.2 186.6 403.9 133.8 411.8C81.1 419.7 40.5 452.9 0 486L0 0Z" fill="#00335f"></path><path d="M388.8 0C356.1 34.5 323.3 69 302.1 98.1C280.8 127.3 270.9 151.1 264.7 192.3C258.5 233.5 255.8 292.2 228.5 314.5C201.2 336.9 149.2 323.1 107 329.4C64.8 335.8 32.4 362.3 0 388.8L0 0Z" fill="#007196"></path><path d="M291.6 0C267.1 25.9 242.5 51.7 226.5 73.6C210.6 95.5 203.2 113.3 198.5 144.2C193.9 175.2 191.9 219.1 171.4 235.9C150.9 252.7 111.9 242.3 80.3 247.1C48.6 251.8 24.3 271.7 0 291.6L0 0Z" fill="#00b28f"></path><path d="M194.4 0C178 17.2 161.7 34.5 151 49.1C140.4 63.6 135.5 75.6 132.4 96.2C129.2 116.8 127.9 146.1 114.3 157.3C100.6 168.5 74.6 161.6 53.5 164.7C32.4 167.9 16.2 181.1 0 194.4L0 0Z" fill="#71ea51"></path><path d="M97.2 0C89 8.6 80.8 17.2 75.5 24.5C70.2 31.8 67.7 37.8 66.2 48.1C64.6 58.4 64 73 57.1 78.6C50.3 84.2 37.3 80.8 26.8 82.4C16.2 83.9 8.1 90.6 0 97.2L0 0Z" fill="#d6ff1d"></path></g></svg>